<svg fill="#fff" xmlns="http://www.w3.org/2000/svg"  viewBox="0 0 100 100" width="100px" height="100px"><path d="M 49.962891 30 A 1.0001 1.0001 0 0 0 49.179688 30.429688 L 33.179688 53.429688 A 1.0001 1.0001 0 0 0 33 54 L 33 66 A 1.0001 1.0001 0 0 0 34 67 L 66 67 A 1.0001 1.0001 0 0 0 67 66 L 67 54.580078 A 0.50005 0.50005 0 0 0 67 54.417969 L 67 54 A 1.0001 1.0001 0 0 0 66.820312 53.429688 L 50.820312 30.429688 A 1.0001 1.0001 0 0 0 49.962891 30 z M 50 32.75 L 53.304688 37.5 L 46.695312 37.5 L 50 32.75 z M 46 38.5 L 54 38.5 L 64.783203 54 L 49.5 54 A 0.50005 0.50005 0 1 0 49.5 55 L 65 55 L 65 65 L 35 65 L 35 55 L 38.5 55 A 0.50005 0.50005 0 1 0 38.5 54 L 35.21875 54 L 46 38.5 z M 2.9980469 45 A 1.0001 1.0001 0 0 0 2.1054688 46.447266 L 12.105469 66.447266 A 1.0001 1.0001 0 0 0 13 67 L 29 67 A 1.0001 1.0001 0 0 0 30 66 L 30 54 A 1.0001 1.0001 0 0 0 29.294922 53.044922 L 3.2949219 45.044922 A 1.0001 1.0001 0 0 0 2.9980469 45 z M 97.033203 45 A 1.0001 1.0001 0 0 0 96.705078 45.044922 L 70.705078 53.044922 A 1.0001 1.0001 0 0 0 70 54 L 70 66 A 1.0001 1.0001 0 0 0 71 67 L 87 67 A 1.0001 1.0001 0 0 0 87.894531 66.447266 L 97.894531 46.447266 A 1.0001 1.0001 0 0 0 97.033203 45 z M 4.9394531 47.642578 L 10.636719 49.396484 L 7.1308594 52.027344 L 4.9394531 47.642578 z M 95.060547 47.642578 L 92.869141 52.027344 L 89.363281 49.396484 L 95.060547 47.642578 z M 11.820312 49.759766 L 27.419922 54.560547 L 24.751953 56.5625 A 0.50005 0.50005 0 1 0 25.351562 57.361328 L 28 55.375 L 28 65 L 15.167969 65 L 22.501953 59.498047 A 0.50005 0.50005 0 1 0 21.902344 58.699219 L 13.583984 64.935547 L 7.5859375 52.935547 L 11.820312 49.759766 z M 88.179688 49.759766 L 92.414062 52.935547 L 86.416016 64.935547 L 79.951172 60.087891 A 0.50019555 0.50019555 0 1 0 79.351562 60.888672 L 84.832031 65 L 72 65 L 72 55.375 L 73.460938 56.470703 A 0.50005 0.50005 0 1 0 74.060547 55.671875 L 72.580078 54.560547 L 88.179688 49.759766 z M 41.5 54 A 0.50005 0.50005 0 1 0 41.5 55 L 46.5 55 A 0.50005 0.50005 0 1 0 46.5 54 L 41.5 54 z M 75.628906 56.986328 A 0.50005 0.50005 0 0 0 75.355469 57.890625 L 77.390625 59.417969 A 0.50019525 0.50019525 0 1 0 77.990234 58.617188 L 75.955078 57.091797 A 0.50005 0.50005 0 0 0 75.628906 56.986328 z M 14 70 A 1.0001 1.0001 0 1 0 14 72 L 86 72 A 1.0001 1.0001 0 1 0 86 70 L 14 70 z"/></svg>